<svg width="24" height="24" viewBox="0 0 24 24" fill="none" xmlns="http://www.w3.org/2000/svg">
<path d="M8.689 19.5424L3.462 14.3154C3.308 14.16 3.19267 13.989 3.116 13.8024C3.03867 13.6157 3 13.4224 3 13.2224C3 13.0224 3.03867 12.83 3.116 12.6454C3.19333 12.4607 3.30867 12.2917 3.462 12.1384L9.019 6.58638L6.139 3.78238L6.919 2.98438L16.075 12.1584C16.2277 12.3117 16.3413 12.481 16.416 12.6664C16.4907 12.8517 16.5283 13.0447 16.529 13.2454C16.5297 13.446 16.492 13.639 16.416 13.8244C16.34 14.0097 16.2257 14.1797 16.073 14.3344L10.865 19.5424C10.7117 19.6957 10.5427 19.811 10.358 19.8884C10.1733 19.9657 9.98067 20.004 9.78 20.0034C9.57933 20.0027 9.386 19.9644 9.2 19.8884C9.014 19.8124 8.843 19.697 8.687 19.5424M9.768 7.33337L4.302 12.7984C4.22533 12.8757 4.174 12.9527 4.148 13.0294C4.122 13.106 4.10933 13.1827 4.11 13.2594H15.425C15.425 13.1827 15.412 13.106 15.386 13.0294C15.3607 12.9527 15.3097 12.876 15.233 12.7994L9.768 7.33337ZM19.318 20.0034C18.8467 20.0034 18.454 19.8394 18.14 19.5114C17.8253 19.1827 17.668 18.78 17.668 18.3034C17.668 17.9434 17.7453 17.5954 17.9 17.2594C18.0547 16.9234 18.2543 16.6087 18.499 16.3154L19.319 15.3114L20.188 16.3154C20.4287 16.6087 20.6273 16.9234 20.784 17.2594C20.9407 17.5954 21.0187 17.9434 21.018 18.3034C21.018 18.78 20.8527 19.1827 20.522 19.5114C20.1913 19.8394 19.79 20.0034 19.318 20.0034Z" fill="#0059FF"/>
</svg>
