<svg width="79" height="15" viewBox="0 0 79 15" fill="none" xmlns="http://www.w3.org/2000/svg">
<path d="M2.64205 12L0.255682 3.27273H1.32955L3.15341 10.3807H3.23864L5.09659 3.27273H6.28977L8.14773 10.3807H8.23295L10.0568 3.27273H11.1307L8.74432 12H7.65341L5.72727 5.04545H5.65909L3.73295 12H2.64205ZM12.1257 12H11.0178L14.2223 3.27273H15.3132L18.5178 12H17.4098L14.8018 4.65341H14.7337L12.1257 12ZM12.5348 8.59091H17.0007V9.52841H12.5348V8.59091ZM19.8771 12V3.27273H20.9339V11.0625H24.9908V12H19.8771ZM26.6271 12V3.27273H27.6839V11.0625H31.7408V12H26.6271ZM34.0376 12H32.0604L36.522 3.27273H38.8999L40.4595 12H38.4822L37.4212 5.26705H37.353L34.0376 12ZM34.4893 8.5696H39.1598L38.9126 10.0099H34.2422L34.4893 8.5696ZM41.4759 12L42.5668 5.45455H44.3267L44.1349 6.59659H44.2031C44.3906 6.19034 44.642 5.88352 44.9574 5.67614C45.2756 5.46591 45.6179 5.3608 45.9844 5.3608C46.0753 5.3608 46.1705 5.36648 46.2699 5.37784C46.3722 5.38636 46.4631 5.40057 46.5426 5.42045L46.2699 7.03551C46.1903 7.0071 46.0767 6.98437 45.929 6.96733C45.7841 6.94744 45.6463 6.9375 45.5156 6.9375C45.2514 6.9375 45.0057 6.99574 44.7784 7.11222C44.5511 7.22585 44.3594 7.38494 44.2031 7.58949C44.0497 7.79403 43.9489 8.02983 43.9006 8.29688L43.2912 12H41.4759ZM51.2866 5.45455L51.0607 6.81818H47.1147L47.3448 5.45455H51.2866ZM48.4954 3.88636H50.3107L49.2965 9.98864C49.2681 10.1562 49.2724 10.2869 49.3093 10.3807C49.3462 10.4716 49.4073 10.5355 49.4925 10.5724C49.5806 10.6094 49.6857 10.6278 49.8079 10.6278C49.8931 10.6278 49.9798 10.6207 50.0678 10.6065C50.1559 10.5895 50.2227 10.5767 50.2681 10.5682L50.3363 11.919C50.234 11.9503 50.0962 11.9844 49.9229 12.0213C49.7525 12.0582 49.5508 12.081 49.3178 12.0895C48.8746 12.1065 48.4996 12.0483 48.1928 11.9148C47.886 11.7784 47.6658 11.5696 47.5323 11.2884C47.3988 11.0071 47.3704 10.6534 47.4471 10.2273L48.4954 3.88636ZM51.3782 12L52.4691 5.45455H54.2844L53.1935 12H51.3782ZM53.5643 4.60227C53.2944 4.60227 53.0714 4.51278 52.8952 4.33381C52.7219 4.15199 52.6509 3.93608 52.6822 3.68608C52.7134 3.4304 52.8356 3.21449 53.0487 3.03835C53.2617 2.85937 53.5032 2.76989 53.7731 2.76989C54.043 2.76989 54.2631 2.85937 54.4336 3.03835C54.604 3.21449 54.6751 3.4304 54.6467 3.68608C54.6183 3.93608 54.4975 4.15199 54.2844 4.33381C54.0742 4.51278 53.8342 4.60227 53.5643 4.60227ZM60.8651 7.32102L59.2159 7.4233C59.2074 7.27841 59.1676 7.14915 59.0966 7.03551C59.0284 6.91903 58.9276 6.8267 58.794 6.75852C58.6634 6.69034 58.4986 6.65625 58.2997 6.65625C58.0014 6.65625 57.7358 6.72443 57.5028 6.8608C57.2699 6.99716 57.1378 7.17187 57.1065 7.38494C57.081 7.52131 57.1165 7.63636 57.2131 7.73011C57.3097 7.82386 57.5043 7.90341 57.7969 7.96875L58.9474 8.20739C59.5611 8.33807 60.0043 8.5554 60.277 8.85938C60.5526 9.16335 60.6506 9.56108 60.571 10.0526C60.5 10.4702 60.3168 10.8352 60.0213 11.1477C59.7259 11.4574 59.3509 11.6989 58.8963 11.8722C58.4418 12.0426 57.9375 12.1278 57.3835 12.1278C56.4943 12.1278 55.8182 11.946 55.3551 11.5824C54.892 11.2187 54.669 10.7259 54.6861 10.1037L56.4588 10.0099C56.473 10.277 56.5668 10.4787 56.7401 10.6151C56.9134 10.7486 57.1506 10.8168 57.4517 10.8196C57.7898 10.8253 58.0767 10.7557 58.3125 10.6108C58.5511 10.4631 58.6861 10.2841 58.7173 10.0739C58.7401 9.92614 58.6974 9.80682 58.5895 9.71591C58.4844 9.625 58.2912 9.54972 58.0099 9.49006L56.919 9.2642C56.2997 9.13636 55.8551 8.90767 55.5852 8.57812C55.3153 8.24858 55.223 7.82955 55.3082 7.32102C55.3764 6.91477 55.5455 6.56676 55.8153 6.27699C56.0881 5.98438 56.4389 5.75994 56.8679 5.60369C57.2997 5.44744 57.7869 5.36932 58.3295 5.36932C59.179 5.36932 59.8182 5.54403 60.2472 5.89347C60.679 6.2429 60.8849 6.71875 60.8651 7.32102ZM65.9585 5.45455L65.7326 6.81818H61.7866L62.0167 5.45455H65.9585ZM63.1673 3.88636H64.9826L63.9684 9.98864C63.94 10.1562 63.9442 10.2869 63.9812 10.3807C64.0181 10.4716 64.0792 10.5355 64.1644 10.5724C64.2525 10.6094 64.3576 10.6278 64.4798 10.6278C64.565 10.6278 64.6516 10.6207 64.7397 10.6065C64.8278 10.5895 64.8945 10.5767 64.94 10.5682L65.0082 11.919C64.9059 11.9503 64.7681 11.9844 64.5948 12.0213C64.4244 12.0582 64.2227 12.081 63.9897 12.0895C63.5465 12.1065 63.1715 12.0483 62.8647 11.9148C62.5579 11.7784 62.3377 11.5696 62.2042 11.2884C62.0707 11.0071 62.0423 10.6534 62.119 10.2273L63.1673 3.88636ZM66.0501 12L67.141 5.45455H68.9009L68.7092 6.59659H68.7773C68.9648 6.19034 69.2163 5.88352 69.5316 5.67614C69.8498 5.46591 70.1921 5.3608 70.5586 5.3608C70.6495 5.3608 70.7447 5.36648 70.8441 5.37784C70.9464 5.38636 71.0373 5.40057 71.1168 5.42045L70.8441 7.03551C70.7646 7.0071 70.6509 6.98437 70.5032 6.96733C70.3583 6.94744 70.2205 6.9375 70.0898 6.9375C69.8256 6.9375 69.5799 6.99574 69.3526 7.11222C69.1254 7.22585 68.9336 7.38494 68.7773 7.58949C68.6239 7.79403 68.5231 8.02983 68.4748 8.29688L67.8654 12H66.0501ZM71.8796 14.4545C71.6467 14.4545 71.4336 14.4361 71.2404 14.3991C71.0472 14.3651 70.8881 14.321 70.7631 14.267L71.4023 12.9119C71.604 12.9773 71.7873 13.0114 71.9521 13.0142C72.1197 13.017 72.2731 12.9744 72.4123 12.8864C72.5515 12.7983 72.6793 12.6534 72.7958 12.4517L72.9577 12.1747L71.7305 5.45455H73.5714L74.1254 10.2699H74.1935L76.3626 5.45455H78.3526L74.6069 12.7074C74.4222 13.0625 74.2035 13.3707 73.9506 13.6321C73.7006 13.8935 73.4038 14.0952 73.06 14.2372C72.7191 14.3821 72.3256 14.4545 71.8796 14.4545Z" fill="white"/>
</svg>
