<svg width="24" height="24" viewBox="0 0 24 24" fill="none" xmlns="http://www.w3.org/2000/svg">
<path d="M14.609 21.2507C18.2767 21.2507 21.25 18.2775 21.25 14.6098C21.25 10.942 18.2767 7.96875 14.609 7.96875C10.9413 7.96875 7.96802 10.942 7.96802 14.6098C7.96802 18.2775 10.9413 21.2507 14.609 21.2507Z" stroke="#1A00FF" stroke-linecap="round" stroke-linejoin="round"/>
<path d="M12.5575 17.1437C12.7543 17.3919 13.0078 17.5893 13.2966 17.7193C13.5855 17.8493 13.9013 17.908 14.2175 17.8907H15.214C15.6544 17.8907 16.0767 17.7158 16.388 17.4044C16.6994 17.0931 16.8743 16.6708 16.8743 16.2305C16.8743 15.7901 16.6994 15.3678 16.388 15.0565C16.0767 14.7451 15.6544 14.5702 15.214 14.5702H14.1345C13.6942 14.5702 13.2719 14.3953 12.9606 14.0839C12.6492 13.7726 12.4743 13.3503 12.4743 12.91C12.4743 12.4696 12.6492 12.0473 12.9606 11.736C13.2719 11.4246 13.6942 11.2497 14.1345 11.2497H15.131C15.4493 11.2138 15.7714 11.2643 16.0634 11.3957C16.3555 11.5271 16.6068 11.7347 16.791 11.9967M14.6325 10.3367V18.6377M8.24754 12.3427C8.02357 12.1328 7.84524 11.8789 7.72369 11.597C7.60214 11.3151 7.53996 11.0112 7.54104 10.7042V8.54571C7.53985 8.25104 7.59702 7.95905 7.70925 7.68659C7.82148 7.41413 7.98655 7.16659 8.19494 6.95825C8.40333 6.74991 8.6509 6.58489 8.92339 6.47272C9.19588 6.36055 9.48788 6.30345 9.78254 6.30471C10.1155 6.31071 10.4434 6.38788 10.7441 6.53104C11.0448 6.67419 11.3114 6.88002 11.526 7.13471M6.54504 8.71171H9.36754M6.54504 10.3717H9.36754" stroke="#1A00FF" stroke-linecap="round" stroke-linejoin="round"/>
<path d="M8.01001 15.8868C6.84093 15.6382 5.76059 15.0788 4.88296 14.2674C4.00533 13.456 3.36293 12.4229 3.02352 11.2769C2.68411 10.1309 2.66027 8.91448 2.95452 7.75605C3.24877 6.59762 3.8502 5.54007 4.69538 4.69495C5.54055 3.84984 6.59813 3.24847 7.75658 2.9543C8.91503 2.66012 10.1314 2.68403 11.2774 3.02351C12.4234 3.363 13.4565 4.00546 14.2678 4.88315C15.0791 5.76083 15.6385 6.8412 15.887 8.0103" stroke="#1A00FF" stroke-linecap="round" stroke-linejoin="round"/>
</svg>
