<svg width="24" height="24" viewBox="0 0 24 24" fill="none" xmlns="http://www.w3.org/2000/svg"><path d="M12 3.00377C12.6581 3.00353 13.3062 3.16569 13.8866 3.47587C14.4671 3.78604 14.962 4.23465 15.3276 4.78191C15.6932 5.32918 15.918 5.95819 15.9823 6.61317C16.0466 7.26816 15.9482 7.92889 15.696 8.53677C14.8622 8.62536 14.0562 8.88774 13.3301 9.30697C12.6039 9.7262 11.9737 10.293 11.48 10.9708C10.5173 10.8445 9.63333 10.3724 8.99303 9.64254C8.35272 8.91262 7.99977 7.97473 8 7.00377C8 5.9429 8.42142 4.92548 9.17157 4.17534C9.92172 3.42519 10.9391 3.00377 12 3.00377ZM17.764 8.67577C18.0226 7.78203 18.0699 6.84039 17.902 5.92524C17.7342 5.0101 17.3558 4.14654 16.7967 3.4028C16.2377 2.65905 15.5134 2.0555 14.681 1.63985C13.8486 1.22419 12.9309 1.00781 12.0005 1.00781C11.0701 1.00781 10.1524 1.22419 9.32002 1.63985C8.48762 2.0555 7.76329 2.65905 7.20426 3.4028C6.64524 4.14654 6.26684 5.0101 6.09897 5.92524C5.9311 6.84039 5.97835 7.78203 6.237 8.67577C5.33367 8.8986 4.49454 9.32846 3.78592 9.93138C3.0773 10.5343 2.5186 11.2937 2.15397 12.1497C1.78934 13.0057 1.62878 13.9348 1.68496 14.8635C1.74115 15.7922 2.01254 16.6951 2.4777 17.5009C2.94287 18.3067 3.58905 18.9932 4.36519 19.5063C5.14132 20.0194 6.02615 20.345 6.94976 20.4573C7.87336 20.5696 8.81043 20.4656 9.68691 20.1534C10.5634 19.8413 11.3553 19.3296 12 18.6588C12.6447 19.3295 13.4366 19.8411 14.313 20.1532C15.1894 20.4652 16.1264 20.5692 17.0499 20.4569C17.9735 20.3446 18.8582 20.0191 19.6343 19.5061C20.4104 18.9931 21.0566 18.3066 21.5218 17.5009C21.9869 16.6953 22.2584 15.7924 22.3147 14.8638C22.371 13.9352 22.2105 13.0062 21.8461 12.1502C21.4816 11.2943 20.9231 10.5348 20.2146 9.93178C19.5062 9.32878 18.6672 8.89879 17.764 8.67577ZM13.154 16.9378C13.494 16.1715 13.6697 15.3425 13.6697 14.5043C13.6697 13.666 13.494 12.837 13.154 12.0708C13.6626 11.407 14.3664 10.9193 15.1665 10.6761C15.9666 10.433 16.8227 10.4466 17.6147 10.7152C18.4066 10.9837 19.0945 11.4936 19.5817 12.1732C20.0689 12.8529 20.3309 13.6681 20.3309 14.5043C20.3309 15.3405 20.0689 16.1557 19.5817 16.8353C19.0945 17.5149 18.4066 18.0248 17.6147 18.2934C16.8227 18.5619 15.9666 18.5755 15.1665 18.3324C14.3664 18.0892 13.6626 17.6015 13.154 16.9378ZM11.364 12.9708C11.6845 13.7432 11.7549 14.5966 11.5653 15.411C11.3757 16.2255 10.9357 16.9601 10.3071 17.5116C9.67847 18.0631 8.89285 18.4038 8.06064 18.4858C7.22842 18.5677 6.39143 18.3869 5.6673 17.9686C4.94317 17.5504 4.36829 16.9157 4.02346 16.1539C3.67862 15.3921 3.58116 14.5413 3.74477 13.7212C3.90838 12.9012 4.32484 12.1529 4.93562 11.5818C5.5464 11.0106 6.3208 10.6451 7.15 10.5368C7.64354 11.2144 8.27362 11.7811 8.9996 12.2004C9.72559 12.6196 10.5304 12.882 11.364 12.9708Z" fill="#FF7700"/></svg>