<svg width="24" height="24" viewBox="0 0 24 24" fill="none" xmlns="http://www.w3.org/2000/svg"><g clip-path="url(#clip0_45_52)"><path d="M5 20C5.26522 20 5.51957 19.8946 5.70711 19.7071C5.89464 19.5196 6 19.2652 6 19C6 18.7348 5.89464 18.4804 5.70711 18.2929C5.51957 18.1054 5.26522 18 5 18C4.73478 18 4.48043 18.1054 4.29289 18.2929C4.10536 18.4804 4 18.7348 4 19C4 19.2652 4.10536 19.5196 4.29289 19.7071C4.48043 19.8946 4.73478 20 5 20Z" fill="#007E30"/><path fill-rule="evenodd" clip-rule="evenodd" d="M-9.76585e-06 3.202C-9.76585e-06 2.082 -9.76026e-06 1.522 0.21799 1.092C0.40999 0.716 0.71599 0.41 1.09199 0.218C1.51999 1.49012e-08 2.07999 0 3.20199 0H6.80199C7.92199 0 8.48199 1.49012e-08 8.91199 0.218C9.28799 0.41 9.59399 0.716 9.78599 1.092C10.004 1.52 10.004 2.08 10.004 3.202V6.932L12.644 4.292C13.436 3.5 13.834 3.102 14.284 2.952C14.6869 2.82063 15.1211 2.82063 15.524 2.952C15.981 3.1 16.377 3.496 17.164 4.292L19.714 6.842C20.506 7.634 20.904 8.032 21.054 8.482C21.184 8.884 21.184 9.316 21.054 9.722C20.906 10.179 20.51 10.575 19.714 11.362L17.074 14.002H20.804C21.924 14.002 22.484 14.002 22.914 14.22C23.29 14.412 23.596 14.718 23.788 15.094C24.006 15.522 24.006 16.082 24.006 17.204V20.804C24.006 21.924 24.006 22.484 23.788 22.914C23.5962 23.2903 23.2903 23.5963 22.914 23.788C22.486 24.006 21.926 24.006 20.804 24.006H4.98999C2.22999 24.006 -0.0100098 21.766 -0.0100098 19.006V3.206L-9.76585e-06 3.202ZM3.19999 1.002H6.79999C7.37699 1.002 7.74899 1.002 8.02999 1.026C8.30199 1.048 8.40199 1.086 8.45199 1.111C8.63999 1.207 8.79299 1.36 8.88899 1.548C8.91399 1.598 8.95199 1.698 8.97399 1.97C8.99699 2.253 8.99799 2.626 8.99799 3.2V19C8.99799 21.21 7.20799 23 4.99799 23C2.78799 23 0.99799 21.21 0.99799 19V3.2C0.99799 2.623 0.99799 2.251 1.02199 1.97C1.04399 1.698 1.08199 1.598 1.10699 1.548C1.20299 1.36 1.35599 1.207 1.54399 1.111C1.59399 1.086 1.69399 1.048 1.96599 1.026C2.24899 1.002 2.62199 1.002 3.19599 1.002H3.19999ZM16.1 15.002L8.55999 22.542C8.39317 22.7091 8.21472 22.8641 8.02599 23.006H20.826C21.402 23.006 21.775 23.006 22.056 22.982C22.328 22.96 22.428 22.922 22.478 22.897C22.666 22.801 22.819 22.648 22.915 22.46C22.94 22.41 22.978 22.31 23 22.038C23.023 21.755 23.024 21.382 23.024 20.808V17.208C23.024 16.631 23.024 16.259 23 15.978C22.978 15.706 22.94 15.606 22.915 15.556C22.8191 15.3678 22.6661 15.2149 22.478 15.119C22.428 15.094 22.328 15.056 22.056 15.034C21.6464 15.0112 21.2361 15.0032 20.826 15.01H16.096L16.1 15.002ZM9.97999 19.712L19.03 10.662C19.438 10.254 19.7 9.991 19.884 9.774C20.06 9.566 20.105 9.468 20.122 9.416C20.1872 9.21517 20.1872 8.99883 20.122 8.798C20.105 8.745 20.06 8.647 19.884 8.44C19.7 8.223 19.437 7.959 19.03 7.552L16.48 5.002C16.072 4.594 15.809 4.332 15.592 4.148C15.384 3.972 15.286 3.927 15.234 3.91C15.0332 3.84475 14.8168 3.84475 14.616 3.91C14.563 3.927 14.465 3.972 14.258 4.148C14.041 4.332 13.778 4.595 13.37 5.002L10.03 8.342V19.042C10.03 19.282 10.0133 19.5173 9.97999 19.748V19.712Z" fill="#007E30"/></g><defs><clipPath id="clip0_45_52"><rect width="24" height="24" fill="white"/></clipPath></defs></svg>